<svg xmlns="http://www.w3.org/2000/svg" width="25" height="25" viewBox="0 0 25 25"><linearGradient id="a" gradientUnits="userSpaceOnUse" x1="182" y1="-267" x2="182" y2="-292" gradientTransform="matrix(1 0 0 -1 -169.5 -267)"><stop offset="0" stop-color="#005134"/><stop offset="1" stop-color="#008653"/></linearGradient><path fill="url(#a)" d="M0 0h25v25H0z"/><linearGradient id="b" gradientUnits="userSpaceOnUse" x1="182" y1="-290.337" x2="182" y2="-268.66" gradientTransform="matrix(1 0 0 -1 -169.5 -267)"><stop offset="0" stop-color="#ff8b01"/><stop offset=".192" stop-color="#ff9a00"/><stop offset=".58" stop-color="#ffc100"/><stop offset="1" stop-color="#fdee00"/></linearGradient><path fill="url(#b)" d="M12.565 1.688c.14 0 7.306 8.282 7.306 14.252a7.372 7.372 0 0 1-14.74 0c0-5.97 7.295-14.252 7.436-14.252z"/><linearGradient id="c" gradientUnits="userSpaceOnUse" x1="182" y1="-273.892" x2="182" y2="-284.513" gradientTransform="matrix(1 0 0 -1 -169.5 -267)"><stop offset="0" stop-color="#00497d"/><stop offset="1" stop-color="#0068a5"/></linearGradient><path fill="url(#c)" d="M12.5 17.513a5.32 5.32 0 0 0 5.31-5.31c0-2.925-2.385-5.31-5.31-5.31s-5.31 2.385-5.31 5.31a5.32 5.32 0 0 0 5.31 5.31z"/></svg>