<svg xmlns="http://www.w3.org/2000/svg" width="25" height="25" viewBox="0 0 25 25"><path fill="#F5D218" d="M0 0h25v25H0z"/><path fill="#175EB0" d="M14.218 6.853c.017.104.017.23.06.337.17.407.362.805.533 1.212.173.406.33.818.49 1.227.057.14.13.154.23.035.055-.065.11-.13.17-.188.57-.548 1.135-1.098 1.707-1.64.304-.29.62-.564.927-.848.027-.026.052-.097.04-.116a.175.175 0 0 0-.126-.068c-.212-.004-.423.003-.635.005-.16.003-.322 0-.483.004l-2.233.038c-.205.003-.41 0-.68 0zm7.827-1.17c-.068.248-.126.454-.18.662-.098.37-.195.742-.288 1.114-.074.293-.14.59-.214.885-.09.36-.19.717-.28 1.077-.08.322-.15.647-.23.97-.07.277-.147.552-.222.828-.05.192-.103.383-.153.575-.165.634-.33 1.268-.49 1.903-.113.45-.2.91-.33 1.356a12.6 12.6 0 0 1-.416 1.195c-.27.675-.74 1.21-1.26 1.69-.404.376-.88.643-1.38.87-.53.24-1.094.345-1.65.478-.155.036-.32.02-.48.027.127-.53.24-1.026.367-1.518.11-.422.242-.837.356-1.257.085-.313.15-.63.232-.945.083-.32.177-.637.26-.957.078-.288.15-.578.22-.867l.25-1.003c.086-.35.17-.698.262-1.045.046-.172.1-.344.16-.51.07-.19.027-.268-.168-.268-.793 0-1.585-.002-2.377.01a.394.394 0 0 0-.278.14c-.318.435-.62.883-.926 1.327-.376.545-.748 1.09-1.126 1.63-.195.28-.405.55-.602.83-.524.74-1.05 1.482-1.57 2.227-.35.503-.692 1.013-1.04 1.52-.087.128-.185.25-.267.382-.106.17-.257.185-.44.184-1.483-.004-2.968 0-4.453 0a7.29 7.29 0 0 1-.257-.005c-.124-.005-.134-.07-.103-.178.09-.32.177-.64.26-.96.127-.503.252-1.006.374-1.51.078-.323.146-.65.223-.973.09-.386.193-.77.284-1.154.08-.337.14-.677.223-1.013.112-.465.237-.926.354-1.39.05-.192.09-.386.136-.58.102-.434.18-.875.312-1.3.104-.34.256-.667.414-.987A5.862 5.862 0 0 1 6.96 7.33a7.098 7.098 0 0 1 1.44-.952c.492-.255 1.015-.396 1.533-.564a.285.285 0 0 1 .06-.012c.457-.04.915-.113 1.373-.115 3.38-.01 6.76-.005 10.14-.004h.542z"/></svg>