<svg xmlns="http://www.w3.org/2000/svg" width="100" height="100" viewBox="0 0 100 100"><path fill="#21C25E" d="M26.406 57.95h3.75V47.028h-3.75V57.95zm5.042-18.357h-2.52v2.52h2.52v-2.52zM17.292 40.82h-3.62v3.168h3.36c2.134 0 3.362 1.034 3.362 2.973S19.166 50 17.034 50H13.67V44.05h-3.75V57.95h3.75v-4.783h3.554c4.33 0 6.852-2.327 6.852-6.335 0-3.75-2.456-6.01-6.786-6.01zm16.677-3.748h-7.564v7.563h7.563v-7.563zm-1.23 6.27H27.7V38.3h5.04v5.042zm21.98-2.52h-3.427v3.166h3.232c2.133 0 3.36 1.034 3.36 2.973S56.66 50 54.526 50h-3.232V44.05h-3.75V57.95h3.75v-4.783h3.426c4.33 0 6.85-2.327 6.85-6.335 0-3.75-2.52-6.01-6.85-6.01zm31.48 4.007l-3.233 8.144-3.232-8.145h-3.878l5.17 13.12-2.003 4.978h3.943l7.11-18.1H86.2zm-16.808-.066c-2.262 0-4.008.517-5.947 1.487l1.164 2.587c1.356-.776 2.714-1.164 3.942-1.164 1.81 0 2.715.776 2.715 2.198v.26h-3.62c-3.232 0-4.977 1.487-4.977 3.943 0 2.392 1.68 4.072 4.525 4.072 1.81 0 3.103-.646 4.137-1.745v1.422h3.685V49.29c-.13-2.78-2.134-4.526-5.625-4.526zm2.198 8.79c-.388 1.1-1.487 2.005-3.038 2.005-1.293 0-2.07-.647-2.07-1.682s.712-1.487 2.134-1.487h2.973v1.165zm-31.868 1.553c-1.81 0-3.103-1.422-3.103-3.555 0-2.07 1.292-3.49 3.102-3.49 1.293 0 2.262.516 2.973 1.42l2.52-1.81c-1.163-1.744-3.166-2.78-5.687-2.78-3.943-.064-6.658 2.65-6.658 6.66s2.715 6.657 6.658 6.657c2.715 0 4.72-1.1 5.818-2.91l-2.586-1.745c-.646 1.035-1.68 1.552-3.038 1.552z"/></svg>