<svg xmlns="http://www.w3.org/2000/svg" width="25" height="25" viewBox="0 0 25 25"><path d="M0 0h25v25H0z"/><path d="M2.308 10.17h2.335c1.048 0 1.622.705 1.622 1.55 0 .84-.573 1.532-1.622 1.532H3.51v1.28a.3.3 0 0 1-.3.3h-.6a.3.3 0 0 1-.302-.3V10.17zm2.174 1.012H3.51v1.05h.972c.32 0 .56-.204.56-.518 0-.322-.238-.532-.56-.532m4.138 2.07h-.614v1.28a.3.3 0 0 1-.3.3h-.602a.3.3 0 0 1-.3-.3V10.17h2.334c1.035 0 1.622.683 1.622 1.55 0 .81-.496 1.245-.93 1.4l.703 1.264a.3.3 0 0 1-.263.447h-.68a.303.303 0 0 1-.27-.166l-.7-1.413zm.336-2.07h-.95v1.05h.95c.316 0 .58-.204.58-.525 0-.322-.265-.525-.58-.525m2.8-1.012h.538c.184 0 .333.148.333.332v4.03a.3.3 0 0 1-.3.3h-.602a.3.3 0 0 1-.3-.3V10.5c0-.184.148-.333.332-.333m5.636 1.52l-1.108 2.95a.3.3 0 0 1-.28.195h-.115a.302.302 0 0 1-.282-.196l-1.102-2.95v2.845a.3.3 0 0 1-.3.303h-.602a.3.3 0 0 1-.3-.3V10.17h1.4a.39.39 0 0 1 .364.253l.878 2.388.885-2.387a.39.39 0 0 1 .366-.254h1.4v4.36a.3.3 0 0 1-.3.3h-.602a.3.3 0 0 1-.3-.3v-2.843zm1.88-1.517h3.085c.184 0 .333.148.333.332v.68h-2.214v.777h2.167v1.02h-2.167v.84h2.216v.71a.3.3 0 0 1-.3.3h-2.817a.3.3 0 0 1-.3-.3v-4.36z" fill="#FFF"/></svg>