<svg xmlns="http://www.w3.org/2000/svg" width="100" height="100" viewBox="-37.5 -37.5 100 100"><path fill="#F6F5F5" d="M-37.5-37.5h100v100h-100v-100z"/><path fill="#ED1C24" d="M-16.94 8.772c-.264.628-.52 1.16-.712 1.712-.96 2.892-.9 5.808-.18 8.736.04.16.2.312.34.412 3.4 2.468 6.8 4.936 10.212 7.376.52.368.78.752.856 1.4.372 3.252.808 6.492 1.22 9.736.064.508.06.508.572.508H8.176c.29-.002.57.097.792.28.72.532 1.44 1.056 2.212 1.504.84.492 1.752.52 2.6.02a25.61 25.61 0 0 0 2.24-1.512c.232-.192.523-.297.824-.296 4.28.008 8.56 0 12.84.016.372 0 .488-.128.52-.464.072-.704.172-1.4.26-2.1.344-2.7.692-5.4 1.024-8.092a.895.895 0 0 1 .4-.696c3.548-2.56 7.092-5.12 10.632-7.692a.946.946 0 0 0 .348-.528c.176-.912.368-1.828.44-2.748.2-2.328-.052-4.6-1-6.768-.112-.24-.24-.48-.384-.76L22.548 28.52l-.068-.06.228-.292c6.128-7.512 12.256-15.028 18.4-22.532.264-.29.35-.7.224-1.072a5.695 5.695 0 0 0-.132-.44 21.755 21.755 0 0 0-2.92-5.344c-.39-.527-.828-1.02-1.304-1.472-.4-.388-.44-.352-.712.12a52256.25 52256.25 0 0 0-16.46 28.56l-.24.4a.573.573 0 0 1 .072-.36c4.892-10.44 9.78-20.88 14.688-31.312.24-.504.2-.86-.16-1.232a18.173 18.173 0 0 0-4.28-3.584c-.88-.544-1.78-1.02-2.8-1.22-.504-.1-.52-.08-.664.4C23.068.82 19.724 12.56 16.38 24.304c-.092.32-.192.628-.28.94-.048-.048-.052-.08-.04-.12 1.172-5.88 2.352-11.76 3.532-17.64l3.92-19.548c.2-.98.2-1.008-.708-1.468-2.592-1.308-5.36-1.768-8.24-1.572-.332.016-.452.132-.464.46-.04 1.304-.104 2.612-.16 3.92L13.52.104l-.42 10.792-.452 11.928-.092 2.132a.72.72 0 0 1-.104-.4l-.208-5.252c-.16-4.152-.332-8.304-.496-12.456l-.424-10.62c-.144-3.632-.292-7.264-.424-10.9-.012-.3-.112-.4-.4-.44a14.174 14.174 0 0 0-3.792.16c-1.76.28-3.464.76-5.008 1.704-.3.184-.384.368-.312.712.592 2.868 1.16 5.74 1.74 8.612l5.42 27.06.376 1.92a.575.575 0 0 1-.168-.304l-6.76-23.72C.848-2.984-.304-7-1.436-11.016c-.08-.3-.228-.392-.5-.32-.36.088-.728.168-1.08.3-1.184.456-2.24 1.14-3.252 1.892A16.12 16.12 0 0 0-9.2-6.456c-.28.344-.36.648-.148 1.104C-4.404 5.156.52 15.672 5.444 26.188l.188.424a1.065 1.065 0 0 1-.268-.336L-6.676 5.388c-1.54-2.68-3.088-5.36-4.62-8.048-.168-.304-.32-.34-.56-.12-.26.24-.54.464-.76.732A22.055 22.055 0 0 0-16.2 4.16c-.252.656-.168 1.152.3 1.728C-9.82 13.3-3.764 20.74 2.3 28.168c.06.08.12.16.176.248l-.068.048-19.352-19.68.004-.012zm15.728 36.48c-3.08 0-6.16 0-9.24.012-.32 0-.42-.092-.456-.4-.264-2.336-.548-4.672-.824-7a1076.09 1076.09 0 0 1-.728-6.28.858.858 0 0 0-.384-.656c-3.392-2.432-6.76-4.892-10.168-7.308a2.66 2.66 0 0 1-1.16-1.88 37.777 37.777 0 0 1-.552-8.54 35.986 35.986 0 0 1 4.536-15.68 37.875 37.875 0 0 1 15.52-15.28A36.174 36.174 0 0 1 6.52-21.548a36.2 36.2 0 0 1 8.748-.388c5.2.4 10.112 1.832 14.68 4.352 8.16 4.496 13.96 11.096 17.384 19.768 1.1 2.788 1.8 5.68 2.16 8.664.29 2.196.35 4.416.176 6.624-.16 1.72-.448 3.424-.712 5.128-.032.208-.228.44-.408.568a564.328 564.328 0 0 1-5.708 4.2c-1.68 1.224-3.384 2.424-5.08 3.624a.614.614 0 0 0-.292.48c-.32 2.772-.648 5.54-.976 8.304-.208 1.74-.424 3.48-.62 5.22-.028.252-.14.28-.34.272H31.26l-12.48.012c-.664 0-1.32 0-1.98.024-.144 0-.32.08-.424.176a5.572 5.572 0 0 1-7.776-.012.762.762 0 0 0-.464-.168 372.61 372.61 0 0 0-4.728-.04h-4.616l-.004-.008z"/><path fill="#FFD500" d="M-16.94 8.772c6.5 6.616 12.92 13.148 19.348 19.68l.068-.04-.18-.252c-6.064-7.432-12.12-14.868-18.2-22.28-.48-.576-.56-1.072-.304-1.728A21.927 21.927 0 0 1-12.62-2.06c.224-.268.504-.488.76-.728.24-.216.388-.184.56.12 1.532 2.68 3.08 5.36 4.624 8.04 4.012 6.968 8.024 13.932 12.04 20.892.064.12.14.24.264.34l-.188-.428C.512 15.656-4.412 5.144-9.352-5.364c-.212-.452-.136-.752.148-1.1a16.12 16.12 0 0 1 2.932-2.688c1.012-.752 2.068-1.44 3.256-1.892.352-.132.72-.212 1.08-.304.28-.068.42.024.504.32 1.136 4.02 2.28 8.04 3.428 12.052l6.76 23.72a.62.62 0 0 0 .172.308l-.376-1.92-5.42-27.06c-.576-2.88-1.148-5.748-1.74-8.616-.068-.344.012-.528.308-.708 1.54-.94 3.24-1.42 5-1.7 1.26-.2 2.52-.296 3.8-.16.288.04.388.136.4.44.128 3.64.28 7.268.42 10.904l.424 10.624.5 12.456.208 5.256c0 .132.02.268.104.4.032-.72.068-1.424.092-2.136l.452-11.928.42-10.8.424-10.828c.056-1.3.12-2.608.16-3.912.012-.32.132-.44.46-.464 2.888-.2 5.648.264 8.24 1.576.912.46.908.488.712 1.468l-3.92 19.548-3.536 17.64c-.012.04 0 .072.04.12.092-.312.192-.624.28-.936l10.04-35.224c.136-.48.16-.496.664-.4 1.02.2 1.928.68 2.8 1.22 1.54.96 2.968 2.068 4.168 3.44l.112.14c.36.372.4.728.16 1.232-4.908 10.432-9.8 20.872-14.688 31.32a.598.598 0 0 0-.068.352l.24-.388L36.26-2.58c.268-.464.312-.5.712-.112.468.456.92.944 1.308 1.472 1.208 1.648 2.208 3.416 2.92 5.344.048.144.08.292.128.44a1.08 1.08 0 0 1-.228 1.072c-6.14 7.504-12.264 15.02-18.4 22.532l-.224.288c.023.018.046.036.068.056l19.38-19.708c.144.288.272.52.38.76.952 2.168 1.2 4.44 1.008 6.776-.08.928-.268 1.84-.44 2.752a.917.917 0 0 1-.348.528c-3.54 2.575-7.086 5.14-10.64 7.692a.91.91 0 0 0-.392.696c-.332 2.696-.68 5.392-1.02 8.092-.088.7-.184 1.4-.256 2.1-.032.336-.148.468-.52.464-4.28-.012-8.56 0-12.84-.012a1.283 1.283 0 0 0-.828.296 25.544 25.544 0 0 1-2.24 1.52c-.8.49-1.81.48-2.6-.024-.762-.46-1.5-.96-2.208-1.5a1.242 1.242 0 0 0-.792-.292c-4.268.008-8.54 0-12.808 0-.52 0-.508 0-.572-.5-.412-3.24-.848-6.48-1.224-9.732a1.807 1.807 0 0 0-.86-1.408c-3.42-2.44-6.816-4.908-10.212-7.376-.14-.104-.3-.256-.34-.412-.72-2.92-.78-5.84.18-8.732.188-.56.448-1.08.708-1.72z"/></svg>