<svg xmlns="http://www.w3.org/2000/svg" width="100" height="100" viewBox="0 0 100 100"><path fill="#F6F5F5" d="M0 0h100v100H0V0z"/><path fill="#F49600" d="M81.88 54.314a6.967 6.967 0 0 0-.17-.467c-5.377 6.14-18.58 10.112-30.454 9.226-7-.52-19.955-4.138-26.49-8.14 6.9 6.612 14.987 11.648 24.138 14.362 10.873 3.228 22.476 3.01 29.014-.397 4.796-3.236 5.88-9.005 3.962-14.584"/><path fill="#164194" d="M66.923 15.714c21.413 12.638 8.67 52.416-8.37 65.193-15.858 11.887-32.716 6.41-36.375-4.548 3.197 4.745 9.536 6.472 15.167 4.584 15.65-6.274 23.708-34.62 24.75-44.47.7-8.474-.41-14.162-3.35-17.752-3.37-3.562-8.534-5.287-16.09-2.915 5.2-4.27 16.327-4.77 24.268-.093"/><path fill="#E4032E" d="M78.906 68.332c.08-.042.173-.103.256-.16.006-.01.03-.02.044-.03.435-.287.874-.61 1.283-.982.178-.17.37-.348.555-.55 8.332-8.45 10.1-31.953-10.418-43.086-7.307-3.962-24.3-9.51-41.24-.954-5.598 2.823-11.377 8.704-14.494 16.69 2.3-3.788 6.274-6.36 14.104-7.47 7.816-.978 18.584.237 29.118 3.953 6.795 2.5 12.296 5.597 16.587 9.103 3.548 3.04 5.827 5.924 7.01 9.004a9.3 9.3 0 0 1 .168.463c1.917 5.58.834 11.348-3.958 14.583-.004.008.004-.006 0 0 .217-.113.44-.234.68-.38.03-.017.063-.037.094-.06.06-.032.134-.07.21-.124"/><path fill="#F49600" d="M17.543 52.784c.397.624 1.28 1.685 1.862 2.36 4.12-9.673 26.658-15.96 33.304-15.886-14.933-4.806-29.572-2.51-35.462 2.593-2.138 2.38-2.8 5.953.295 10.934"/><path fill="#4A96D2" d="M61.493 74.728C49.5 74.058 32.016 69.43 19.63 55.4a3.752 3.752 0 0 0-.222-.257c-.584-.674-1.468-1.732-1.866-2.36-3.095-4.98-2.428-8.553-.292-10.935-.385.352-.864.79-1.403 1.488-3.17 4.1-3.552 10.754-1.39 17.803 4.725 15.31 25.356 24.52 42.114 21.988 10.7-1.612 17.403-7.632 20.192-10.094-6.06 1.722-10.54 1.956-15.27 1.694"/></svg>