<svg xmlns="http://www.w3.org/2000/svg" width="25" height="25" viewBox="0 0 25 25"><path d="M0 0h25v25H0z"/><path d="M6.156 11.878l-.845 1.81-.194-5.545H2.333l.662 8.2c.023.288.27.515.56.515h2.738a.52.52 0 0 0 .465-.28L8.845 12.5l.642-4.357h-1.59l-1.74 3.735zm9.22-3.735a.38.38 0 0 0-.38.326l-1.166 7.92a.413.413 0 0 0 .408.467h1.97a.38.38 0 0 0 .38-.328l.245-1.72a.345.345 0 0 1 .033-.108c-.402-.25-.62-.73-.62-.73.488.436 1.31.51 1.31.51h1.026c1.752-.012 3.44-1.028 3.61-3.17l.476-3.168h-7.292zm4.425 3.194a.945.945 0 0 1-.9.767h-1.21a.413.413 0 0 1-.406-.466l.112-.79a.38.38 0 0 1 .38-.33h2.15l-.124.82zm-6.424-3.19a.29.29 0 0 0-.05-.004h-2.22a.265.265 0 0 0-.265.226L9.64 16.532a.287.287 0 0 0 .283.324h2.224a.264.264 0 0 0 .264-.226l1.202-8.163a.288.288 0 0 0-.234-.32" fill="#FFF"/></svg>